<?xml version="1.0" standalone="no"?>
<!DOCTYPE svg PUBLIC "-//W3C//DTD SVG 20010904//EN"
 "http://www.w3.org/TR/2001/REC-SVG-20010904/DTD/svg10.dtd">
<svg version="1.0" xmlns="http://www.w3.org/2000/svg"
 width="2084.000000pt" height="2084.000000pt" viewBox="0 0 2084.000000 2084.000000"
 preserveAspectRatio="xMidYMid meet">
<metadata>
Created by potrace 1.14, written by Peter Selinger 2001-2017
</metadata>
<g transform="translate(0.000000,2084.000000) scale(0.100000,-0.100000)"
fill="#000000" stroke="none">
<path d="M6547 18354 c-1 -1 -42 -4 -92 -8 -469 -34 -918 -241 -1256 -577
-128 -128 -163 -170 -259 -313 -156 -231 -260 -489 -309 -763 -29 -162 -34
-259 -34 -709 l-1 -401 -365 0 c-452 -1 -508 -2 -646 -19 -499 -61 -975 -325
-1304 -723 -63 -77 -184 -260 -226 -343 -19 -39 -39 -76 -44 -82 -4 -6 -11
-20 -14 -31 -3 -11 -15 -45 -27 -75 -26 -66 -79 -224 -84 -254 -2 -12 -11 -57
-20 -101 -26 -130 -26 -136 -33 -245 -9 -133 -9 -6807 -1 -6955 4 -60 9 -117
12 -125 3 -8 7 -33 10 -56 10 -85 60 -279 93 -364 4 -8 7 -17 8 -20 23 -61 38
-94 88 -195 58 -115 150 -261 226 -355 108 -135 331 -340 446 -410 22 -13 42
-27 45 -30 13 -15 205 -117 300 -158 97 -42 283 -100 375 -116 17 -3 39 -8 50
-10 33 -6 97 -15 155 -22 30 -4 255 -7 500 -8 l445 -1 5 -1075 c3 -591 8
-1082 11 -1090 34 -93 92 -159 176 -197 67 -31 174 -37 233 -13 29 11 160 83
220 120 8 5 40 24 70 41 30 17 113 65 184 106 72 42 144 83 160 93 17 9 96 55
176 102 80 47 176 102 213 124 38 21 81 46 96 55 27 17 414 241 581 337 52 30
109 63 125 73 17 10 46 26 65 37 19 11 170 98 335 194 165 96 327 190 360 209
33 19 68 39 77 44 9 6 29 17 45 26 15 9 82 48 148 86 297 172 462 267 480 277
11 6 27 16 35 22 8 6 35 23 60 36 57 31 330 189 525 304 l150 88 2620 1 c1441
1 2649 5 2685 9 447 51 837 227 1159 521 63 58 151 149 183 191 12 16 28 34
34 39 6 6 22 26 35 45 13 19 27 40 32 45 29 34 124 193 161 270 89 182 166
418 182 558 4 29 8 55 10 59 11 18 18 245 18 619 l1 417 420 0 c543 0 635 7
850 67 50 14 98 27 108 30 33 8 130 46 195 76 35 16 65 29 67 29 24 0 347 206
375 239 3 3 26 23 51 43 80 64 187 176 272 283 26 33 52 66 58 73 6 7 38 59
73 115 169 276 252 518 294 856 9 75 9 6977 0 7066 -10 89 -35 242 -42 253 -3
5 -8 23 -11 40 -6 38 -52 184 -70 227 -7 17 -25 59 -39 95 -47 112 -164 313
-236 403 -136 171 -269 301 -429 418 -244 178 -573 316 -846 354 -22 3 -47 8
-55 10 -8 2 -49 7 -90 11 -57 6 -10626 13 -10633 8z"/>
</g>
</svg>
